<?xml version="1.0" encoding="UTF-8" standalone="no"?>
<svg
   xmlns:dc="http://purl.org/dc/elements/1.1/"
   xmlns:cc="http://creativecommons.org/ns#"
   xmlns:rdf="http://www.w3.org/1999/02/22-rdf-syntax-ns#"
   xmlns:svg="http://www.w3.org/2000/svg"
   xmlns="http://www.w3.org/2000/svg"
   xmlns:sodipodi="http://sodipodi.sourceforge.net/DTD/sodipodi-0.dtd"
   xmlns:inkscape="http://www.inkscape.org/namespaces/inkscape"
   version="1.1"
   id="svg833"
   xml:space="preserve"
   width="614.40002"
   height="460.79999"
   viewBox="0 0 614.40002 460.79999"
   sodipodi:docname="sum_of_crosstalk2.svg"
   inkscape:version="1.0.1 (3bc2e813f5, 2020-09-07)"><metadata
     id="metadata839"><rdf:RDF><cc:Work
         rdf:about=""><dc:format>image/svg+xml</dc:format><dc:type
           rdf:resource="http://purl.org/dc/dcmitype/StillImage" /><dc:title></dc:title></cc:Work></rdf:RDF></metadata><defs
     id="defs837"><clipPath
       clipPathUnits="userSpaceOnUse"
       id="clipPath853"><path
         d="M 57.6,38.016 H 414.72 V 304.128 H 57.6 Z"
         id="path851" /></clipPath><clipPath
       clipPathUnits="userSpaceOnUse"
       id="clipPath863"><path
         d="m -3.75,-3.75 h 7.5 v 7.5 h -7.5 z"
         id="path861" /></clipPath><clipPath
       clipPathUnits="userSpaceOnUse"
       id="clipPath875"><path
         d="m -3.75,-3.75 h 7.5 v 7.5 h -7.5 z"
         id="path873" /></clipPath><clipPath
       clipPathUnits="userSpaceOnUse"
       id="clipPath887"><path
         d="m -3.75,-3.75 h 7.5 v 7.5 h -7.5 z"
         id="path885" /></clipPath><clipPath
       clipPathUnits="userSpaceOnUse"
       id="clipPath899"><path
         d="m -3.75,-3.75 h 7.5 v 7.5 h -7.5 z"
         id="path897" /></clipPath><clipPath
       clipPathUnits="userSpaceOnUse"
       id="clipPath911"><path
         d="m -3.75,-3.75 h 7.5 v 7.5 h -7.5 z"
         id="path909" /></clipPath><clipPath
       clipPathUnits="userSpaceOnUse"
       id="clipPath923"><path
         d="m -3.75,-3.75 h 7.5 v 7.5 h -7.5 z"
         id="path921" /></clipPath><clipPath
       clipPathUnits="userSpaceOnUse"
       id="clipPath935"><path
         d="m -3.75,-3.75 h 7.5 v 7.5 h -7.5 z"
         id="path933" /></clipPath><clipPath
       clipPathUnits="userSpaceOnUse"
       id="clipPath947"><path
         d="m -3.75,-3.75 h 7.5 v 7.5 h -7.5 z"
         id="path945" /></clipPath><clipPath
       clipPathUnits="userSpaceOnUse"
       id="clipPath959"><path
         d="m -3.75,-3.75 h 7.5 v 7.5 h -7.5 z"
         id="path957" /></clipPath><clipPath
       clipPathUnits="userSpaceOnUse"
       id="clipPath971"><path
         d="m -3.75,-3.75 h 7.5 v 7.5 h -7.5 z"
         id="path969" /></clipPath><clipPath
       clipPathUnits="userSpaceOnUse"
       id="clipPath983"><path
         d="m -3.75,-3.75 h 7.5 v 7.5 h -7.5 z"
         id="path981" /></clipPath><clipPath
       clipPathUnits="userSpaceOnUse"
       id="clipPath995"><path
         d="m -3.75,-3.75 h 7.5 v 7.5 h -7.5 z"
         id="path993" /></clipPath><clipPath
       clipPathUnits="userSpaceOnUse"
       id="clipPath1007"><path
         d="m -3.75,-3.75 h 7.5 v 7.5 h -7.5 z"
         id="path1005" /></clipPath><clipPath
       clipPathUnits="userSpaceOnUse"
       id="clipPath1019"><path
         d="m -3.75,-3.75 h 7.5 v 7.5 h -7.5 z"
         id="path1017" /></clipPath><clipPath
       clipPathUnits="userSpaceOnUse"
       id="clipPath1031"><path
         d="m -3.75,-3.75 h 7.5 v 7.5 h -7.5 z"
         id="path1029" /></clipPath><clipPath
       clipPathUnits="userSpaceOnUse"
       id="clipPath1043"><path
         d="m -3.75,-3.75 h 7.5 v 7.5 h -7.5 z"
         id="path1041" /></clipPath><clipPath
       clipPathUnits="userSpaceOnUse"
       id="clipPath1055"><path
         d="m -3.75,-3.75 h 7.5 v 7.5 h -7.5 z"
         id="path1053" /></clipPath><clipPath
       clipPathUnits="userSpaceOnUse"
       id="clipPath1067"><path
         d="m -3.75,-3.75 h 7.5 v 7.5 h -7.5 z"
         id="path1065" /></clipPath><clipPath
       clipPathUnits="userSpaceOnUse"
       id="clipPath1079"><path
         d="m -3.75,-3.75 h 7.5 v 7.5 h -7.5 z"
         id="path1077" /></clipPath><clipPath
       clipPathUnits="userSpaceOnUse"
       id="clipPath1091"><path
         d="m -3.75,-3.75 h 7.5 v 7.5 h -7.5 z"
         id="path1089" /></clipPath><clipPath
       clipPathUnits="userSpaceOnUse"
       id="clipPath1167"><path
         d="M -1016,-351 H 1660 V 1068 H -1016 Z"
         id="path1165" /></clipPath><clipPath
       clipPathUnits="userSpaceOnUse"
       id="clipPath1219"><path
         d="M 57.6,38.016 H 414.72 V 304.128 H 57.6 Z"
         id="path1217" /></clipPath></defs><sodipodi:namedview
     pagecolor="#ffffff"
     bordercolor="#666666"
     borderopacity="1"
     objecttolerance="10"
     gridtolerance="10"
     guidetolerance="10"
     inkscape:pageopacity="0"
     inkscape:pageshadow="2"
     inkscape:window-width="1920"
     inkscape:window-height="1017"
     id="namedview835"
     showgrid="false"
     inkscape:zoom="1.7854817"
     inkscape:cx="307.20001"
     inkscape:cy="230.39999"
     inkscape:window-x="-8"
     inkscape:window-y="-8"
     inkscape:window-maximized="1"
     inkscape:current-layer="g841" /><g
     id="g841"
     inkscape:groupmode="layer"
     inkscape:label="sum_of_crosstalk"
     transform="matrix(1.3333333,0,0,-1.3333333,0,460.8)"><path
       d="M 0,0 H 460.8 V 345.6 H 0 Z"
       style="fill:#ffffff;fill-opacity:1;fill-rule:nonzero;stroke:none"
       id="path843" /><path
       d="M 57.6,38.016 H 414.72 V 304.128 H 57.6 Z"
       style="fill:#ffffff;fill-opacity:1;fill-rule:nonzero;stroke:none"
       id="path845" /><g
       id="g847"><g
         id="g849"
         clip-path="url(#clipPath853)"><g
           id="g855"
           transform="translate(65.209091,275.33509)"><g
             id="g857"><g
               id="g859"
               clip-path="url(#clipPath863)"><path
                 d="M -3,-3 3,3 M -3,3 3,-3"
                 style="fill:#1f77b4;fill-opacity:1;fill-rule:nonzero;stroke:#1f77b4;stroke-width:1.5;stroke-linecap:butt;stroke-linejoin:round;stroke-miterlimit:10;stroke-dasharray:none;stroke-opacity:1"
                 id="path865" /></g></g><g
             id="g867"
             transform="translate(0,-3.2457079)"><g
               id="g869"><g
                 id="g871"
                 clip-path="url(#clipPath875)"><path
                   d="M -3,-3 3,3 M -3,3 3,-3"
                   style="fill:#1f77b4;fill-opacity:1;fill-rule:nonzero;stroke:#1f77b4;stroke-width:1.5;stroke-linecap:butt;stroke-linejoin:round;stroke-miterlimit:10;stroke-dasharray:none;stroke-opacity:1"
                   id="path877" /></g></g><g
               id="g879"
               transform="translate(0,7.846617)"><g
                 id="g881"><g
                   id="g883"
                   clip-path="url(#clipPath887)"><path
                     d="M -3,-3 3,3 M -3,3 3,-3"
                     style="fill:#1f77b4;fill-opacity:1;fill-rule:nonzero;stroke:#1f77b4;stroke-width:1.5;stroke-linecap:butt;stroke-linejoin:round;stroke-miterlimit:10;stroke-dasharray:none;stroke-opacity:1"
                     id="path889" /></g></g><g
                 id="g891"
                 transform="translate(2.5363636,-58.454043)"><g
                   id="g893"><g
                     id="g895"
                     clip-path="url(#clipPath899)"><path
                       d="M -3,-3 3,3 M -3,3 3,-3"
                       style="fill:#1f77b4;fill-opacity:1;fill-rule:nonzero;stroke:#1f77b4;stroke-width:1.5;stroke-linecap:butt;stroke-linejoin:round;stroke-miterlimit:10;stroke-dasharray:none;stroke-opacity:1"
                       id="path901" /></g></g><g
                   id="g903"
                   transform="translate(0,0.85770007)"><g
                     id="g905"><g
                       id="g907"
                       clip-path="url(#clipPath911)"><path
                         d="M -3,-3 3,3 M -3,3 3,-3"
                         style="fill:#1f77b4;fill-opacity:1;fill-rule:nonzero;stroke:#1f77b4;stroke-width:1.5;stroke-linecap:butt;stroke-linejoin:round;stroke-miterlimit:10;stroke-dasharray:none;stroke-opacity:1"
                         id="path913" /></g></g><g
                     id="g915"
                     transform="translate(2.5363636,-17.520845)"><g
                       id="g917"><g
                         id="g919"
                         clip-path="url(#clipPath923)"><path
                           d="M -3,-3 3,3 M -3,3 3,-3"
                           style="fill:#1f77b4;fill-opacity:1;fill-rule:nonzero;stroke:#1f77b4;stroke-width:1.5;stroke-linecap:butt;stroke-linejoin:round;stroke-miterlimit:10;stroke-dasharray:none;stroke-opacity:1"
                           id="path925" /></g></g><g
                       id="g927"
                       transform="translate(2.5363636,47.370075)"><g
                         id="g929"><g
                           id="g931"
                           clip-path="url(#clipPath935)"><path
                             d="M -3,-3 3,3 M -3,3 3,-3"
                             style="fill:#1f77b4;fill-opacity:1;fill-rule:nonzero;stroke:#1f77b4;stroke-width:1.5;stroke-linecap:butt;stroke-linejoin:round;stroke-miterlimit:10;stroke-dasharray:none;stroke-opacity:1"
                             id="path937" /></g></g><g
                         id="g939"
                         transform="translate(2.5363636,27.691476)"><g
                           id="g941"><g
                             id="g943"
                             clip-path="url(#clipPath947)"><path
                               d="M -3,-3 3,3 M -3,3 3,-3"
                               style="fill:#1f77b4;fill-opacity:1;fill-rule:nonzero;stroke:#1f77b4;stroke-width:1.5;stroke-linecap:butt;stroke-linejoin:round;stroke-miterlimit:10;stroke-dasharray:none;stroke-opacity:1"
                               id="path949" /></g></g><g
                           id="g951"
                           transform="translate(5.0727273,-64.306955)"><g
                             id="g953"><g
                               id="g955"
                               clip-path="url(#clipPath959)"><path
                                 d="M -3,-3 3,3 M -3,3 3,-3"
                                 style="fill:#1f77b4;fill-opacity:1;fill-rule:nonzero;stroke:#1f77b4;stroke-width:1.5;stroke-linecap:butt;stroke-linejoin:round;stroke-miterlimit:10;stroke-dasharray:none;stroke-opacity:1"
                                 id="path961" /></g></g><g
                             id="g963"
                             transform="translate(5.0727273,-29.423722)"><g
                               id="g965"><g
                                 id="g967"
                                 clip-path="url(#clipPath971)"><path
                                   d="M -3,-3 3,3 M -3,3 3,-3"
                                   style="fill:#1f77b4;fill-opacity:1;fill-rule:nonzero;stroke:#1f77b4;stroke-width:1.5;stroke-linecap:butt;stroke-linejoin:round;stroke-miterlimit:10;stroke-dasharray:none;stroke-opacity:1"
                                   id="path973" /></g></g><g
                               id="g975"
                               transform="translate(7.6090909,-22.379887)"><g
                                 id="g977"><g
                                   id="g979"
                                   clip-path="url(#clipPath983)"><path
                                   d="M -3,-3 3,3 M -3,3 3,-3"
                                   style="fill:#1f77b4;fill-opacity:1;fill-rule:nonzero;stroke:#1f77b4;stroke-width:1.5;stroke-linecap:butt;stroke-linejoin:round;stroke-miterlimit:10;stroke-dasharray:none;stroke-opacity:1"
                                   id="path985" /></g></g><g
                                 id="g987"
                                 transform="translate(10.145455,24.742909)"><g
                                   id="g989"><g
                                   id="g991"
                                   clip-path="url(#clipPath995)"><path
                                   d="M -3,-3 3,3 M -3,3 3,-3"
                                   style="fill:#1f77b4;fill-opacity:1;fill-rule:nonzero;stroke:#1f77b4;stroke-width:1.5;stroke-linecap:butt;stroke-linejoin:round;stroke-miterlimit:10;stroke-dasharray:none;stroke-opacity:1"
                                   id="path997" /></g></g><g
                                   id="g999"
                                   transform="translate(12.681818,-53.877505)"><g
                                   id="g1001"><g
                                   id="g1003"
                                   clip-path="url(#clipPath1007)"><path
                                   d="M -3,-3 3,3 M -3,3 3,-3"
                                   style="fill:#1f77b4;fill-opacity:1;fill-rule:nonzero;stroke:#1f77b4;stroke-width:1.5;stroke-linecap:butt;stroke-linejoin:round;stroke-miterlimit:10;stroke-dasharray:none;stroke-opacity:1"
                                   id="path1009" /></g></g><g
                                   id="g1011"
                                   transform="translate(15.218182,-23.937669)"><g
                                   id="g1013"><g
                                   id="g1015"
                                   clip-path="url(#clipPath1019)"><path
                                   d="M -3,-3 3,3 M -3,3 3,-3"
                                   style="fill:#1f77b4;fill-opacity:1;fill-rule:nonzero;stroke:#1f77b4;stroke-width:1.5;stroke-linecap:butt;stroke-linejoin:round;stroke-miterlimit:10;stroke-dasharray:none;stroke-opacity:1"
                                   id="path1021" /></g></g><g
                                   id="g1023"
                                   transform="translate(20.290909,-6.9557208)"><g
                                   id="g1025"><g
                                   id="g1027"
                                   clip-path="url(#clipPath1031)"><path
                                   d="M -3,-3 3,3 M -3,3 3,-3"
                                   style="fill:#1f77b4;fill-opacity:1;fill-rule:nonzero;stroke:#1f77b4;stroke-width:1.5;stroke-linecap:butt;stroke-linejoin:round;stroke-miterlimit:10;stroke-dasharray:none;stroke-opacity:1"
                                   id="path1033" /></g></g><g
                                   id="g1035"
                                   transform="translate(25.363636,4.9128476)"><g
                                   id="g1037"><g
                                   id="g1039"
                                   clip-path="url(#clipPath1043)"><path
                                   d="M -3,-3 3,3 M -3,3 3,-3"
                                   style="fill:#1f77b4;fill-opacity:1;fill-rule:nonzero;stroke:#1f77b4;stroke-width:1.5;stroke-linecap:butt;stroke-linejoin:round;stroke-miterlimit:10;stroke-dasharray:none;stroke-opacity:1"
                                   id="path1045" /></g></g><g
                                   id="g1047"
                                   transform="translate(35.509091,-18.919571)"><g
                                   id="g1049"><g
                                   id="g1051"
                                   clip-path="url(#clipPath1055)"><path
                                   d="M -3,-3 3,3 M -3,3 3,-3"
                                   style="fill:#1f77b4;fill-opacity:1;fill-rule:nonzero;stroke:#1f77b4;stroke-width:1.5;stroke-linecap:butt;stroke-linejoin:round;stroke-miterlimit:10;stroke-dasharray:none;stroke-opacity:1"
                                   id="path1057" /></g></g><g
                                   id="g1059"
                                   transform="translate(43.118182,-3.8110027)"><g
                                   id="g1061"><g
                                   id="g1063"
                                   clip-path="url(#clipPath1067)"><path
                                   d="M -3,-3 3,3 M -3,3 3,-3"
                                   style="fill:#1f77b4;fill-opacity:1;fill-rule:nonzero;stroke:#1f77b4;stroke-width:1.5;stroke-linecap:butt;stroke-linejoin:round;stroke-miterlimit:10;stroke-dasharray:none;stroke-opacity:1"
                                   id="path1069" /></g></g><g
                                   id="g1071"
                                   transform="translate(55.8,4.4786681)"><g
                                   id="g1073"><g
                                   id="g1075"
                                   clip-path="url(#clipPath1079)"><path
                                   d="M -3,-3 3,3 M -3,3 3,-3"
                                   style="fill:#1f77b4;fill-opacity:1;fill-rule:nonzero;stroke:#1f77b4;stroke-width:1.5;stroke-linecap:butt;stroke-linejoin:round;stroke-miterlimit:10;stroke-dasharray:none;stroke-opacity:1"
                                   id="path1081" /></g></g><g
                                   id="g1083"
                                   transform="translate(71.018182,-28.135874)"><g
                                   id="g1085"><g
                                   id="g1087"
                                   clip-path="url(#clipPath1091)"><path
                                   d="M -3,-3 3,3 M -3,3 3,-3"
                                   style="fill:#1f77b4;fill-opacity:1;fill-rule:nonzero;stroke:#1f77b4;stroke-width:1.5;stroke-linecap:butt;stroke-linejoin:round;stroke-miterlimit:10;stroke-dasharray:none;stroke-opacity:1"
                                   id="path1093" /></g></g></g></g></g></g></g></g></g></g></g></g></g></g></g></g></g></g></g></g></g></g></g></g><g
       id="g1095"><path
         d="m 57.6,38.016 v -3.5"
         style="fill:#000000;fill-opacity:1;fill-rule:nonzero;stroke:#000000;stroke-width:0.8;stroke-linecap:butt;stroke-linejoin:round;stroke-miterlimit:10;stroke-dasharray:none;stroke-opacity:1"
         id="path1097" /><text
         transform="matrix(1,0,0,-1,54.420313,23.42225)"
         style="font-variant:normal;font-weight:normal;font-size:10px;font-family:DejaVuSans;-inkscape-font-specification:DejaVuSans;writing-mode:lr-tb;fill:#000000;fill-opacity:1;fill-rule:nonzero;stroke:none"
         id="text1101"><tspan
           x="0"
           y="0"
           id="tspan1099">0</tspan></text><path
         d="m 108.32727,38.016 v -3.5"
         style="fill:#000000;fill-opacity:1;fill-rule:nonzero;stroke:#000000;stroke-width:0.8;stroke-linecap:butt;stroke-linejoin:round;stroke-miterlimit:10;stroke-dasharray:none;stroke-opacity:1"
         id="path1103" /><text
         transform="matrix(1,0,0,-1,101.9679,23.42225)"
         style="font-variant:normal;font-weight:normal;font-size:10px;font-family:DejaVuSans;-inkscape-font-specification:DejaVuSans;writing-mode:lr-tb;fill:#000000;fill-opacity:1;fill-rule:nonzero;stroke:none"
         id="text1107"><tspan
           x="0 6.3600001"
           y="0"
           sodipodi:role="line"
           id="tspan1105">10</tspan></text><path
         d="m 159.05454,38.016 v -3.5"
         style="fill:#000000;fill-opacity:1;fill-rule:nonzero;stroke:#000000;stroke-width:0.8;stroke-linecap:butt;stroke-linejoin:round;stroke-miterlimit:10;stroke-dasharray:none;stroke-opacity:1"
         id="path1109" /><text
         transform="matrix(1,0,0,-1,152.69517,23.42225)"
         style="font-variant:normal;font-weight:normal;font-size:10px;font-family:DejaVuSans;-inkscape-font-specification:DejaVuSans;writing-mode:lr-tb;fill:#000000;fill-opacity:1;fill-rule:nonzero;stroke:none"
         id="text1113"><tspan
           x="0 6.3600001"
           y="0"
           sodipodi:role="line"
           id="tspan1111">20</tspan></text><path
         d="m 209.78182,38.016 v -3.5"
         style="fill:#000000;fill-opacity:1;fill-rule:nonzero;stroke:#000000;stroke-width:0.8;stroke-linecap:butt;stroke-linejoin:round;stroke-miterlimit:10;stroke-dasharray:none;stroke-opacity:1"
         id="path1115" /><text
         transform="matrix(1,0,0,-1,203.42244,23.42225)"
         style="font-variant:normal;font-weight:normal;font-size:10px;font-family:DejaVuSans;-inkscape-font-specification:DejaVuSans;writing-mode:lr-tb;fill:#000000;fill-opacity:1;fill-rule:nonzero;stroke:none"
         id="text1119"><tspan
           x="0 6.3600001"
           y="0"
           sodipodi:role="line"
           id="tspan1117">30</tspan></text><path
         d="m 260.50909,38.016 v -3.5"
         style="fill:#000000;fill-opacity:1;fill-rule:nonzero;stroke:#000000;stroke-width:0.8;stroke-linecap:butt;stroke-linejoin:round;stroke-miterlimit:10;stroke-dasharray:none;stroke-opacity:1"
         id="path1121" /><text
         transform="matrix(1,0,0,-1,254.14972,23.42225)"
         style="font-variant:normal;font-weight:normal;font-size:10px;font-family:DejaVuSans;-inkscape-font-specification:DejaVuSans;writing-mode:lr-tb;fill:#000000;fill-opacity:1;fill-rule:nonzero;stroke:none"
         id="text1125"><tspan
           x="0 6.3600001"
           y="0"
           sodipodi:role="line"
           id="tspan1123">40</tspan></text><path
         d="m 311.23636,38.016 v -3.5"
         style="fill:#000000;fill-opacity:1;fill-rule:nonzero;stroke:#000000;stroke-width:0.8;stroke-linecap:butt;stroke-linejoin:round;stroke-miterlimit:10;stroke-dasharray:none;stroke-opacity:1"
         id="path1127" /><text
         transform="matrix(1,0,0,-1,304.87699,23.42225)"
         style="font-variant:normal;font-weight:normal;font-size:10px;font-family:DejaVuSans;-inkscape-font-specification:DejaVuSans;writing-mode:lr-tb;fill:#000000;fill-opacity:1;fill-rule:nonzero;stroke:none"
         id="text1131"><tspan
           x="0 6.3600001"
           y="0"
           sodipodi:role="line"
           id="tspan1129">50</tspan></text><path
         d="m 361.96364,38.016 v -3.5"
         style="fill:#000000;fill-opacity:1;fill-rule:nonzero;stroke:#000000;stroke-width:0.8;stroke-linecap:butt;stroke-linejoin:round;stroke-miterlimit:10;stroke-dasharray:none;stroke-opacity:1"
         id="path1133" /><text
         transform="matrix(1,0,0,-1,355.60426,23.42225)"
         style="font-variant:normal;font-weight:normal;font-size:10px;font-family:DejaVuSans;-inkscape-font-specification:DejaVuSans;writing-mode:lr-tb;fill:#000000;fill-opacity:1;fill-rule:nonzero;stroke:none"
         id="text1137"><tspan
           x="0 6.3600001"
           y="0"
           sodipodi:role="line"
           id="tspan1135">60</tspan></text><path
         d="m 412.69091,38.016 v -3.5"
         style="fill:#000000;fill-opacity:1;fill-rule:nonzero;stroke:#000000;stroke-width:0.8;stroke-linecap:butt;stroke-linejoin:round;stroke-miterlimit:10;stroke-dasharray:none;stroke-opacity:1"
         id="path1139" /><text
         transform="matrix(1,0,0,-1,406.33153,23.42225)"
         style="font-variant:normal;font-weight:normal;font-size:10px;font-family:DejaVuSans;-inkscape-font-specification:DejaVuSans;writing-mode:lr-tb;fill:#000000;fill-opacity:1;fill-rule:nonzero;stroke:none"
         id="text1143"><tspan
           x="0 6.3600001"
           y="0"
           sodipodi:role="line"
           id="tspan1141">70</tspan></text><g
         id="g1145"
         transform="translate(196.66,9.344125)"><text
           transform="matrix(1,0,0,-1,0,0.40625)"
           style="font-variant:normal;font-weight:normal;font-size:10px;font-family:DejaVuSans;-inkscape-font-specification:DejaVuSans;writing-mode:lr-tb;fill:#000000;fill-opacity:1;fill-rule:nonzero;stroke:none"
           id="text1149"><tspan
             x="0 6.0302734 8.8085938 14.726562 20.878906 23.657227 26.835938 33.183594 35.961914 39.882812 45.380859 51.71875 54.897461"
             y="0"
             sodipodi:role="line"
             id="tspan1147">Pixel pitch (</tspan></text><text
           transform="matrix(1,0,0,-1,65.161133,0.40625)"
           style="font-style:italic;font-variant:normal;font-size:10px;font-family:DejaVuSans;-inkscape-font-specification:DejaVuSans-Oblique;writing-mode:lr-tb;fill:#000000;fill-opacity:1;fill-rule:nonzero;stroke:none"
           id="text1153"><tspan
             x="0"
             y="0"
             id="tspan1151">m</tspan></text><text
           transform="matrix(1,0,0,-1,74.902344,0.40625)"
           style="font-variant:normal;font-weight:normal;font-size:10px;font-family:DejaVuSans;-inkscape-font-specification:DejaVuSans;writing-mode:lr-tb;fill:#000000;fill-opacity:1;fill-rule:nonzero;stroke:none"
           id="text1157"><tspan
             x="0"
             y="0"
             id="tspan1155">)</tspan></text><g
           id="g1159"
           transform="matrix(0.01,0,0,0.01,58.798828,0.40625)"><g
             id="g1161"><g
               id="g1163"
               clip-path="url(#clipPath1167)"><g
                 id="g1169"><path
                   d="m -12,-207 146,754 h 90 L 158,207 c -2,-8 -3,-16 -4,-24 -1,-8 -1,-17 -1,-25 0,-30 9,-54 28,-70 19,-16 46,-24 82,-24 48,0 86,13 116,41 30,27 50,68 61,123 l 62,319 h 90 L 510,126 c -2,-6 -3,-12 -3,-16 0,-4 0,-8 0,-12 0,-10 2,-18 6,-22 4,-5 10,-7 19,-7 3,0 7,0 13,2 6,2 14,5 25,9 L 556,8 C 542,1 528,-3 515,-7 c -13,-4 -26,-6 -38,-6 -22,0 -39,7 -51,20 C 414,20 408,39 408,63 390,37 368,17 343,5 317,-7 288,-13 254,-13 223,-13 196,-6 174,7 152,21 137,39 130,62 L 77,-207 h -89"
                   style="fill:#000000;fill-opacity:1;fill-rule:nonzero;stroke:none"
                   id="path1171" /></g></g></g></g></g><path
         d="M 57.6,38.016 H 54.1"
         style="fill:#000000;fill-opacity:1;fill-rule:nonzero;stroke:#000000;stroke-width:0.8;stroke-linecap:butt;stroke-linejoin:round;stroke-miterlimit:10;stroke-dasharray:none;stroke-opacity:1"
         id="path1173" /><text
         transform="matrix(1,0,0,-1,34.69375,34.219125)"
         style="font-variant:normal;font-weight:normal;font-size:10px;font-family:DejaVuSans;-inkscape-font-specification:DejaVuSans;writing-mode:lr-tb;fill:#000000;fill-opacity:1;fill-rule:nonzero;stroke:none"
         id="text1177"><tspan
           x="0 6.3600001 9.54"
           y="0"
           sodipodi:role="line"
           id="tspan1175">0.0</tspan></text><path
         d="M 57.6,88.506923 H 54.1"
         style="fill:#000000;fill-opacity:1;fill-rule:nonzero;stroke:#000000;stroke-width:0.8;stroke-linecap:butt;stroke-linejoin:round;stroke-miterlimit:10;stroke-dasharray:none;stroke-opacity:1"
         id="path1179" /><text
         transform="matrix(1,0,0,-1,34.69375,84.710048)"
         style="font-variant:normal;font-weight:normal;font-size:10px;font-family:DejaVuSans;-inkscape-font-specification:DejaVuSans;writing-mode:lr-tb;fill:#000000;fill-opacity:1;fill-rule:nonzero;stroke:none"
         id="text1183"><tspan
           x="0 6.3600001 9.54"
           y="0"
           sodipodi:role="line"
           id="tspan1181">0.2</tspan></text><path
         d="M 57.6,138.99784 H 54.1"
         style="fill:#000000;fill-opacity:1;fill-rule:nonzero;stroke:#000000;stroke-width:0.8;stroke-linecap:butt;stroke-linejoin:round;stroke-miterlimit:10;stroke-dasharray:none;stroke-opacity:1"
         id="path1185" /><text
         transform="matrix(1,0,0,-1,34.69375,135.20097)"
         style="font-variant:normal;font-weight:normal;font-size:10px;font-family:DejaVuSans;-inkscape-font-specification:DejaVuSans;writing-mode:lr-tb;fill:#000000;fill-opacity:1;fill-rule:nonzero;stroke:none"
         id="text1189"><tspan
           x="0 6.3600001 9.54"
           y="0"
           sodipodi:role="line"
           id="tspan1187">0.4</tspan></text><path
         d="M 57.6,189.48877 H 54.1"
         style="fill:#000000;fill-opacity:1;fill-rule:nonzero;stroke:#000000;stroke-width:0.8;stroke-linecap:butt;stroke-linejoin:round;stroke-miterlimit:10;stroke-dasharray:none;stroke-opacity:1"
         id="path1191" /><text
         transform="matrix(1,0,0,-1,34.69375,185.69189)"
         style="font-variant:normal;font-weight:normal;font-size:10px;font-family:DejaVuSans;-inkscape-font-specification:DejaVuSans;writing-mode:lr-tb;fill:#000000;fill-opacity:1;fill-rule:nonzero;stroke:none"
         id="text1195"><tspan
           x="0 6.3600001 9.54"
           y="0"
           sodipodi:role="line"
           id="tspan1193">0.6</tspan></text><path
         d="M 57.6,239.97969 H 54.1"
         style="fill:#000000;fill-opacity:1;fill-rule:nonzero;stroke:#000000;stroke-width:0.8;stroke-linecap:butt;stroke-linejoin:round;stroke-miterlimit:10;stroke-dasharray:none;stroke-opacity:1"
         id="path1197" /><text
         transform="matrix(1,0,0,-1,34.69375,236.18282)"
         style="font-variant:normal;font-weight:normal;font-size:10px;font-family:DejaVuSans;-inkscape-font-specification:DejaVuSans;writing-mode:lr-tb;fill:#000000;fill-opacity:1;fill-rule:nonzero;stroke:none"
         id="text1201"><tspan
           x="0 6.3600001 9.54"
           y="0"
           sodipodi:role="line"
           id="tspan1199">0.8</tspan></text><path
         d="M 57.6,290.47061 H 54.1"
         style="fill:#000000;fill-opacity:1;fill-rule:nonzero;stroke:#000000;stroke-width:0.8;stroke-linecap:butt;stroke-linejoin:round;stroke-miterlimit:10;stroke-dasharray:none;stroke-opacity:1"
         id="path1203" /><text
         transform="matrix(1,0,0,-1,34.69375,286.67374)"
         style="font-variant:normal;font-weight:normal;font-size:10px;font-family:DejaVuSans;-inkscape-font-specification:DejaVuSans;writing-mode:lr-tb;fill:#000000;fill-opacity:1;fill-rule:nonzero;stroke:none"
         id="text1207"><tspan
           x="0 6.3600001 9.54"
           y="0"
           sodipodi:role="line"
           id="tspan1205">1.0</tspan></text><text
         transform="matrix(0,1,1,0,28.615625,101.49388)"
         style="font-variant:normal;font-weight:normal;font-size:10px;font-family:DejaVuSans;-inkscape-font-specification:DejaVuSans;writing-mode:lr-tb;fill:#000000;fill-opacity:1;fill-rule:nonzero;stroke:none"
         id="text1211"><tspan
           x="0 6.98 13.32 23.059999 29.4 32.18 38.310001 42.23 45.009998 50.93 57.080002 60.259998 65.760002 69.870003 75.989998 81.199997 86.410004 90.330002 96.459999 99.239998 105.03 108.21 112.11 116.22 122.35 126.27 129.05 135.17"
           y="0"
           sodipodi:role="line"
           id="tspan1209">Cumulative crosstalk (ratio)</tspan></text></g><g
       id="g1213"><g
         id="g1215"
         clip-path="url(#clipPath1219)"><path
           d="m 65.209091,260.22217 3.202479,1.73037 3.20248,-18.73981 3.202479,-18.84786 3.202479,-16.09642 3.20248,-13.35281 3.202479,-11.08062 3.202479,-9.27358 3.20248,-7.84359 3.202479,-6.70472 3.202479,-5.78841 3.202476,-5.04293 3.20248,-4.4297 3.20248,-3.92001 3.20248,-3.49225 3.20248,-3.13006 3.20248,-2.82084 3.20248,-2.55489 3.20248,-2.32457 3.20248,-2.12383 3.20248,-1.94785 3.20248,-1.79277 3.20248,-1.65541 3.20248,-1.53317 3.20247,-1.42394 3.20248,-1.32594 3.20248,-1.23768 3.20248,-1.15793 3.20248,-1.08562 3.20248,-1.01986 3.20248,-0.95988 3.20248,-0.90503 3.20248,-0.85475 3.20248,-0.80853 3.20248,-0.76595 3.20248,-0.72665 3.20248,-0.69029 3.20248,-0.65659 3.20248,-0.62529 3.20247,-0.59617 3.20248,-0.56905 3.20248,-0.54372 3.20248,-0.52006 3.20248,-0.49789 3.20248,-0.47712 3.20248,-0.457622 3.20248,-0.439287 3.20248,-0.422035 3.20248,-0.405779 3.20248,-0.390442 3.20248,-0.375959 3.20248,-0.362266 3.20248,-0.349307 3.20248,-0.337031 3.20247,-0.32539 3.20248,-0.314342 3.20248,-0.303847 3.20248,-0.293868 3.20248,-0.284373 3.20248,-0.27533 3.20248,-0.266711 3.20248,-0.258491 3.20248,-0.250646 3.20248,-0.24315 3.20248,-0.235988 3.20248,-0.229135 3.20248,-0.222578 3.20248,-0.216298 3.20248,-0.210279 3.20247,-0.204509 3.20249,-0.198973 3.20247,-0.193657 3.20248,-0.188554 3.20248,-0.183647 3.20248,-0.178931 3.20248,-0.174394 3.20248,-0.170027 3.20248,-0.165822 3.20248,-0.161771 3.20248,-0.157866 3.20248,-0.154102 3.20248,-0.15047 3.20248,-0.146965 3.20248,-0.143582 3.20247,-0.140313 3.20248,-0.137155 3.20248,-0.134103 3.20248,-0.13115 3.20248,-0.128296 3.20248,-0.125532 3.20248,-0.122857 3.20248,-0.120266 3.20248,-0.117758 3.20248,-0.115325 3.20248,-0.112969 3.20248,-0.110683 3.20248,-0.108466 3.20248,-0.106315 3.20248,-0.104227 3.20247,-0.102201"
           style="fill:none;stroke:#1f77b4;stroke-width:1.5;stroke-linecap:square;stroke-linejoin:round;stroke-miterlimit:10;stroke-dasharray:none;stroke-opacity:1"
           id="path1221" /></g></g><g
       id="g1223"><path
         d="M 57.6,38.016 V 304.128"
         style="fill:none;stroke:#000000;stroke-width:0.8;stroke-linecap:square;stroke-linejoin:miter;stroke-miterlimit:10;stroke-dasharray:none;stroke-opacity:1"
         id="path1225" /><path
         d="M 414.72,38.016 V 304.128"
         style="fill:none;stroke:#000000;stroke-width:0.8;stroke-linecap:square;stroke-linejoin:miter;stroke-miterlimit:10;stroke-dasharray:none;stroke-opacity:1"
         id="path1227" /><path
         d="M 57.6,38.016 H 414.72"
         style="fill:none;stroke:#000000;stroke-width:0.8;stroke-linecap:square;stroke-linejoin:miter;stroke-miterlimit:10;stroke-dasharray:none;stroke-opacity:1"
         id="path1229" /><path
         d="M 57.6,304.128 H 414.72"
         style="fill:none;stroke:#000000;stroke-width:0.8;stroke-linecap:square;stroke-linejoin:miter;stroke-miterlimit:10;stroke-dasharray:none;stroke-opacity:1"
         id="path1231" /></g></g></svg>
